<svg width="192" height="145" viewBox="0 0 192 145" fill="none" xmlns="http://www.w3.org/2000/svg">
<path d="M113.681 42.3201C122.131 42.3201 128.611 35.2401 128.611 26.7901C128.611 20.6001 125.251 15.2601 119.531 12.8901C113.811 10.5201 107.011 11.6201 102.861 16.2101C98.9511 20.5401 97.1811 27.1601 99.5411 32.8801C101.911 38.6001 107.491 42.3201 113.671 42.3201H113.681ZM137.711 16.8001C153.091 16.8401 186.581 28.7101 186.581 34.8001C186.581 47.4301 173.301 68.8001 167.261 73.8301C170.361 66.2501 173.761 56.0601 173.801 47.1001C163.951 49.4801 151.861 54.2201 140.911 61.3501C129.131 69.0301 118.551 79.3501 112.121 91.0601C105.371 103.33 103.631 114.43 106.751 124.01C109.291 131.82 115.231 138.64 123.441 144.67H82.1811C76.7211 139.21 73.0311 132.43 73.1511 121.04C73.2211 113.87 74.7911 104.81 79.6111 95.2001C53.6511 122.98 58.7011 139.74 48.9911 141.63C39.5011 143.47 23.8411 128.52 17.7011 122.07C20.2511 129.02 29.7611 139.99 38.4711 144.67H3.93113C-1.97887 122.17 -1.09887 90.1701 5.72113 67.2301C12.8411 72.1301 21.8711 82.2801 27.1511 89.6901C38.2411 62.2901 67.3411 33.9901 86.6211 24.7101C87.5911 10.6701 98.9911 -0.0299371 113.091 6.29279e-05C124.381 -0.0199371 133.781 6.64006 137.721 16.8001H137.711Z" fill="black"/>
<path d="M113.681 42.3201C122.131 42.3201 128.611 35.2401 128.611 26.7901C128.611 20.6001 125.251 15.2601 119.531 12.8901C113.811 10.5201 107.011 11.6201 102.861 16.2101C98.9511 20.5401 97.1811 27.1601 99.5411 32.8801C101.911 38.6001 107.491 42.3201 113.671 42.3201H113.681ZM137.711 16.8001C153.091 16.8401 186.581 28.7101 186.581 34.8001C186.581 47.4301 173.301 68.8001 167.261 73.8301C170.361 66.2501 173.761 56.0601 173.801 47.1001C163.951 49.4801 151.861 54.2201 140.911 61.3501C129.131 69.0301 118.551 79.3501 112.121 91.0601C105.371 103.33 103.631 114.43 106.751 124.01C109.291 131.82 115.231 138.64 123.441 144.67H82.1811C76.7211 139.21 73.0311 132.43 73.1511 121.04C73.2211 113.87 74.7911 104.81 79.6111 95.2001C53.6511 122.98 58.7011 139.74 48.9911 141.63C39.5011 143.47 23.8411 128.52 17.7011 122.07C20.2511 129.02 29.7611 139.99 38.4711 144.67H3.93113C-1.97887 122.17 -1.09887 90.1701 5.72113 67.2301C12.8411 72.1301 21.8711 82.2801 27.1511 89.6901C38.2411 62.2901 67.3411 33.9901 86.6211 24.7101C87.5911 10.6701 98.9911 -0.0299371 113.091 6.29279e-05C124.381 -0.0199371 133.781 6.64006 137.721 16.8001H137.711Z" fill="black"/>
<path d="M113.681 42.3201C122.131 42.3201 128.611 35.2401 128.611 26.7901C128.611 20.6001 125.251 15.2601 119.531 12.8901C113.811 10.5201 107.011 11.6201 102.861 16.2101C98.9511 20.5401 97.1811 27.1601 99.5411 32.8801C101.911 38.6001 107.491 42.3201 113.671 42.3201H113.681ZM137.711 16.8001C153.091 16.8401 186.581 28.7101 186.581 34.8001C186.581 47.4301 173.301 68.8001 167.261 73.8301C170.361 66.2501 173.761 56.0601 173.801 47.1001C163.951 49.4801 151.861 54.2201 140.911 61.3501C129.131 69.0301 118.551 79.3501 112.121 91.0601C105.371 103.33 103.631 114.43 106.751 124.01C109.291 131.82 115.231 138.64 123.441 144.67H82.1811C76.7211 139.21 73.0311 132.43 73.1511 121.04C73.2211 113.87 74.7911 104.81 79.6111 95.2001C53.6511 122.98 58.7011 139.74 48.9911 141.63C39.5011 143.47 23.8411 128.52 17.7011 122.07C20.2511 129.02 29.7611 139.99 38.4711 144.67H3.93113C-1.97887 122.17 -1.09887 90.1701 5.72113 67.2301C12.8411 72.1301 21.8711 82.2801 27.1511 89.6901C38.2411 62.2901 67.3411 33.9901 86.6211 24.7101C87.5911 10.6701 98.9911 -0.0299371 113.091 6.29279e-05C124.381 -0.0199371 133.781 6.64006 137.721 16.8001H137.711Z" fill="black"/>
<path d="M117.091 34.6801C121.283 34.6801 124.681 31.2819 124.681 27.0901C124.681 22.8983 121.283 19.5001 117.091 19.5001C112.899 19.5001 109.501 22.8983 109.501 27.0901C109.501 31.2819 112.899 34.6801 117.091 34.6801Z" fill="black"/>
<path d="M127.291 118.47C128.201 115.85 132.001 111 137.411 105.78C144.211 99.2201 153.311 92.2901 160.701 87.3901C150.751 113.99 151.171 127 191.161 144.67C182.491 144.71 157.061 144.67 147.431 144.67C139.621 139.72 125.131 124.74 127.301 118.47H127.291Z" fill="black"/>
</svg>
