<svg version="1.1" id="Layer_1" xmlns:x="ns_extend;" xmlns:i="ns_ai;" xmlns:graph="ns_graphs;" xmlns="http://www.w3.org/2000/svg" xmlns:xlink="http://www.w3.org/1999/xlink" x="0px" y="0px" viewBox="0 0 40.8 47.9" style="enable-background:new 0 0 40.8 47.9;" xml:space="preserve">
 <style type="text/css">
  .st0{fill:#4F0599;}
 </style>
 <metadata>
  <sfw xmlns="ns_sfw;">
   <slices>
   </slices>
   <sliceSourceBounds bottomLeftOrigin="true" height="47.9" width="40.8" x="-134.8" y="2.1">
   </sliceSourceBounds>
  </sfw>
 </metadata>
 <g>
  <path class="st0" d="M18.7,37.1c-1.6,0-2.9-1.3-2.9-2.9c0-1.6,1.3-2.9,2.9-2.9c0,0,0,0,0,0h3.6c1,0,1.9-0.8,1.9-1.9v-7.2
		c0-1.6,1.3-2.9,2.9-2.9c1.6,0,2.9,1.3,2.9,2.9v11.4c-0.1,1.8-1.5,3.3-3.3,3.5L18.7,37.1C18.7,37.1,18.7,37.1,18.7,37.1z">
  </path>
  <path class="st0" d="M18.7,37h7.9c1.7-0.2,3.1-1.6,3.2-3.4V22.2c0-1.5-1.2-2.7-2.8-2.7c-1.5,0-2.7,1.2-2.7,2.7v7.2
		c0,1.1-0.9,2-2.1,2h-3.6c-1.5,0-2.7,1.2-2.8,2.7v0C15.9,35.8,17.1,37,18.7,37z M13.9,28.6c-1.6,0-2.9-1.3-2.9-2.9c0,0,0,0,0,0V14.4
		c0.1-1.8,1.5-3.3,3.3-3.5h8c1.6,0,2.9,1.3,2.9,2.9c0,0.8-0.3,1.5-0.8,2.1c-0.5,0.6-1.3,0.9-2.1,0.9h-3.6c-1,0-1.9,0.8-1.9,1.9v7.2
		C16.8,27.3,15.5,28.6,13.9,28.6L13.9,28.6z">
  </path>
  <path class="st0" d="M22.3,11h-7.9c-1.7,0.2-3.1,1.6-3.2,3.4v11.4c0,1,0.5,2,1.3,2.5c0.9,0.5,2,0.5,2.8,0c0.9-0.5,1.4-1.5,1.3-2.5
		v-7.2c0-0.5,0.2-1.1,0.6-1.4c0.4-0.4,0.9-0.6,1.5-0.6h3.6c1.5,0,2.7-1.2,2.8-2.7v0C25,12.2,23.8,11,22.3,11z">
  </path>
  <path class="st0" d="M23.5,5.8c3,0,6,1.2,8.1,3.3c2.1,2.1,3.4,5,3.3,8.1v21.9c-0.3,1.5-1.5,2.7-3,2.9H17.3c-3,0-5.9-1.2-8.1-3.3
		c-2.1-2.1-3.4-5-3.4-8.1V9.4c0-2,1.6-3.5,3.5-3.6L23.5,5.8z M23.6,0H9.1C4.1,0,0,4.1,0,9.1v21.7c0,4.5,1.8,8.9,5,12.1
		c3.2,3.2,7.6,5,12.2,5h15.3c4.3-0.3,7.8-3.7,8.3-8V17.1c0-4.5-1.8-8.9-5.1-12.1C32.5,1.8,28.1,0,23.6,0L23.6,0z">
  </path>
 </g>
</svg>