<svg width="187" height="119" viewBox="0 0 187 119" fill="none" xmlns="http://www.w3.org/2000/svg">
<path fill-rule="evenodd" clip-rule="evenodd" d="M83.1984 104.144V68.4209H68.9287V118.455H162.143C168.629 118.455 174.849 115.873 179.435 111.275C184.021 106.678 186.598 100.442 186.598 93.9402C186.598 87.4383 184.021 81.2028 179.435 76.6053C174.849 72.0078 168.629 69.425 162.143 69.425H99.5558V83.7299H162.143C164.841 83.7299 167.428 84.8042 169.336 86.7166C171.244 88.6289 172.315 91.2227 172.315 93.9271C172.315 96.6316 171.244 99.2253 169.336 101.138C167.428 103.05 164.841 104.124 162.143 104.124H83.2114L83.1984 104.144Z" fill="black"/>
<path fill-rule="evenodd" clip-rule="evenodd" d="M111.022 14.3114H67.9466V0H111.029C117.515 0 123.735 2.58284 128.321 7.18034C132.907 11.7778 135.484 18.0134 135.484 24.5152C135.484 31.017 132.907 37.2526 128.321 41.8501C123.735 46.4476 117.515 49.0304 111.029 49.0304H24.4548C21.757 49.0304 19.1696 50.1048 17.262 52.0171C15.3544 53.9295 14.2826 56.5232 14.2826 59.2277C14.2826 61.9322 15.3544 64.5259 17.262 66.4382C19.1696 68.3506 21.757 69.425 24.4548 69.425H51.5957V83.7298H24.4548C17.969 83.7298 11.7488 81.147 7.16265 76.5495C2.57648 71.952 0 65.7165 0 59.2146C0 52.7128 2.57648 46.4773 7.16265 41.8798C11.7488 37.2823 17.969 34.6994 24.4548 34.6994H111.022C112.358 34.6994 113.68 34.4358 114.914 33.9235C116.147 33.4112 117.268 32.6603 118.213 31.7137C119.157 30.7671 119.906 29.6433 120.417 28.4065C120.928 27.1697 121.191 25.8441 121.191 24.5054C121.191 23.1667 120.928 21.8411 120.417 20.6043C119.906 19.3675 119.157 18.2438 118.213 17.2972C117.268 16.3506 116.147 15.5997 114.914 15.0874C113.68 14.5751 112.358 14.3114 111.022 14.3114Z" fill="black"/>
</svg>
